<svg width="2159" height="395" viewBox="0 0 2159 395" fill="none" xmlns="http://www.w3.org/2000/svg">
<path d="M80.8 295.8C80.8 296.067 80.6667 296.333 80.4 296.6C80.1333 296.867 79.7333 297 79.2 297H2.4C1.73333 297 1.26667 296.867 1 296.6C0.733333 296.333 0.6 296.067 0.6 295.8C0.6 295.267 1.33333 294.733 2.8 294.2L14.8 290.8C20.6667 288.933 25.6 285.933 29.6 281.8C33.6 277.667 35.6 271.867 35.6 264.4V61.2C35.6 59.3333 35.4667 58 35.2 57.2C35.0667 56.2667 34.3333 54.8 33 52.8L14.4 22.2C13.8667 21.1333 13.3333 20.2 12.8 19.4C12.2667 18.6 12 18 12 17.6C12 17.3333 12.0667 17.2 12.2 17.2C12.4667 17.0667 12.9333 17 13.6 17H74.6C75.4 17 76.0667 17.3333 76.6 18C77.2667 18.6666 78.0667 19.8 79 21.4L221.8 259.6L218.8 265.6V49.6C218.8 42 216.8 36.1333 212.8 32C208.8 27.8667 203.733 24.9333 197.6 23.2L179.6 19.8C178.267 19.2667 177.6 18.7333 177.6 18.2C177.6 17.9333 177.733 17.6667 178 17.4C178.267 17.1333 178.667 17 179.2 17H256C256.533 17 256.933 17.1333 257.2 17.4C257.467 17.6667 257.6 17.9333 257.6 18.2C257.6 18.7333 256.933 19.2667 255.6 19.8L243.6 23.2C237.733 24.9333 232.8 27.8667 228.8 32C224.8 36.1333 222.8 42 222.8 49.6V257.8C222.8 259.4 223 260.867 223.4 262.2C223.933 263.4 224.533 264.533 225.2 265.6L239.4 288.4C240.733 290.8 241.667 292.533 242.2 293.6C242.733 294.667 243 295.4 243 295.8C243 296.2 242.8 296.533 242.4 296.8C242.133 296.933 241.533 297 240.6 297H183.2C181.333 297 180.4 296.067 180.4 294.2C180.4 293.4 180.2 292.467 179.8 291.4C179.533 290.2 179.067 289.2 178.4 288.4L31.2 47.2H39.4V264.4C39.4 271.867 41.4 277.733 45.4 282C49.5333 286.133 54.5333 289.067 60.4 290.8L78.8 294.2C80.1333 294.733 80.8 295.267 80.8 295.8ZM374.941 278.4V276.6L372.741 278.6V149.8C372.741 140.2 370.741 132.867 366.741 127.8C362.741 122.733 357.007 120.2 349.541 120.2C341.274 120.2 335.074 122.267 330.941 126.4C326.807 130.533 324.741 135.267 324.741 140.6V156.8C324.741 163.467 322.407 169.067 317.741 173.6C313.074 178.133 307.007 180.4 299.541 180.4C294.341 180.4 290.007 178.867 286.541 175.8C283.207 172.6 281.541 167.8 281.541 161.4C281.541 154.333 284.341 147.467 289.941 140.8C295.541 134 303.807 128.4 314.741 124C325.807 119.6 339.341 117.4 355.341 117.4C377.207 117.4 393.541 122 404.341 131.2C415.274 140.267 420.741 153.2 420.741 170V273.8C420.741 278.467 421.541 281.867 423.141 284C424.741 286 426.741 287 429.141 287C431.541 287 433.674 286.267 435.541 284.8C437.407 283.333 438.607 280.867 439.141 277.4C439.141 277 439.207 276.733 439.341 276.6C439.607 276.333 439.874 276.2 440.141 276.2C440.407 276.2 440.607 276.333 440.741 276.6C441.007 276.733 441.141 277 441.141 277.4C441.141 279.933 439.941 283 437.541 286.6C435.274 290.2 431.541 293.467 426.341 296.4C421.141 299.2 414.207 300.6 405.541 300.6C394.874 300.6 387.074 298.533 382.141 294.4C377.341 290.267 374.941 284.933 374.941 278.4ZM271.541 258.2C271.541 243.667 277.541 232 289.541 223.2C301.541 214.267 320.607 209.8 346.741 209.8C354.874 209.8 361.541 210.667 366.741 212.4C372.074 214 377.007 216 381.541 218.4L379.941 219.8C375.407 217.667 370.807 216 366.141 214.8C361.474 213.6 356.207 213 350.341 213C340.341 213 332.607 216.333 327.141 223C321.807 229.667 319.141 239.067 319.141 251.2C319.141 262.933 321.741 271.867 326.941 278C332.141 284 338.874 287 347.141 287C352.741 287 358.207 285.733 363.541 283.2C369.007 280.533 373.541 276.733 377.141 271.8L379.341 273C373.474 281.933 365.407 288.8 355.141 293.6C345.007 298.267 334.074 300.6 322.341 300.6C307.274 300.6 295.007 296.667 285.541 288.8C276.207 280.8 271.541 270.6 271.541 258.2ZM511.372 2.39999V282.8L468.972 298.6C468.439 298.733 467.839 298.867 467.172 299C466.639 299.267 466.105 299.4 465.572 299.4C465.039 299.4 464.572 299.2 464.172 298.8C463.772 298.533 463.572 298.133 463.572 297.6V22.4C463.572 21.6 463.372 21 462.972 20.6C462.572 20.0667 461.905 19.8 460.972 19.8H447.972C447.305 19.8 446.839 19.6667 446.572 19.4C446.305 19.1333 446.172 18.8 446.172 18.4C446.172 17.8667 446.305 17.5333 446.572 17.4C446.972 17.1333 447.372 16.9333 447.772 16.8L505.172 0.799987C506.372 0.533324 507.172 0.399992 507.572 0.399992C508.105 0.266652 508.639 0.199983 509.172 0.199983C509.839 0.199983 510.372 0.399984 510.772 0.799987C511.172 1.19999 511.372 1.73332 511.372 2.39999ZM507.972 151.8L505.772 149.4C515.372 137.8 524.705 129.6 533.772 124.8C542.839 119.867 552.972 117.4 564.172 117.4C578.572 117.4 591.305 120.933 602.372 128C613.572 134.933 622.305 144.867 628.572 157.8C634.839 170.733 637.972 186.2 637.972 204.2C637.972 223.533 634.439 240.533 627.372 255.2C620.305 269.733 610.505 281 597.972 289C585.439 297 571.039 301 554.772 301C541.572 301 530.772 298.467 522.372 293.4C513.972 288.333 507.172 281.267 501.972 272.2L505.572 270.4C509.305 278 514.305 283.933 520.572 288.2C526.839 292.467 534.305 294.6 542.972 294.6C551.639 294.6 559.439 291.8 566.372 286.2C573.439 280.6 578.972 271.533 582.972 259C587.105 246.333 589.172 229.533 589.172 208.6C589.172 189.667 587.439 174.2 583.972 162.2C580.505 150.2 575.705 141.333 569.572 135.6C563.439 129.867 556.372 127 548.372 127C541.839 127 535.105 129 528.172 133C521.239 136.867 514.505 143.133 507.972 151.8ZM747.525 117.4C765.125 117.4 780.725 121.333 794.325 129.2C807.925 137.067 818.592 148 826.325 162C834.058 175.867 837.925 191.867 837.925 210C837.925 227.867 833.925 243.667 825.925 257.4C818.058 271 807.125 281.667 793.125 289.4C779.125 297.133 763.125 301 745.125 301C727.525 301 711.925 297.2 698.325 289.6C684.858 281.867 674.258 271.2 666.525 257.6C658.925 243.867 655.125 228 655.125 210C655.125 192 659.058 176.067 666.925 162.2C674.792 148.333 685.658 137.4 699.525 129.4C713.525 121.4 729.525 117.4 747.525 117.4ZM757.325 297.6C765.592 296.8 772.325 292.8 777.525 285.6C782.858 278.4 786.392 268.067 788.125 254.6C789.992 241.133 789.792 224.667 787.525 205.2C785.258 185.467 781.725 169.267 776.925 156.6C772.125 143.8 766.258 134.467 759.325 128.6C752.392 122.6 744.592 120.067 735.925 121C727.392 121.8 720.525 125.867 715.325 133.2C710.125 140.533 706.725 150.933 705.125 164.4C703.525 177.867 703.858 194.2 706.125 213.4C708.392 232.733 711.925 248.8 716.725 261.6C721.658 274.267 727.592 283.667 734.525 289.8C741.458 295.8 749.058 298.4 757.325 297.6ZM927.953 296.8C937.153 296.8 944.42 294.4 949.753 289.6C955.22 284.8 957.953 278.533 957.953 270.8C957.953 265.333 956.686 260.4 954.153 256C951.62 251.6 947.286 247.533 941.153 243.8C935.153 240.067 926.886 236.533 916.353 233.2C900.62 228 888.286 222.333 879.353 216.2C870.42 209.933 864.02 203 860.153 195.4C856.42 187.667 854.553 178.933 854.553 169.2C854.553 152.533 860.22 139.667 871.553 130.6C882.886 121.533 898.02 117 916.953 117C925.086 117 931.753 117.8 936.953 119.4C942.153 120.867 946.153 122.4 948.953 124C951.753 125.6 953.553 126.4 954.353 126.4C955.686 126.4 958.02 125.6 961.353 124C964.686 122.4 967.953 120.867 971.153 119.4C974.486 117.8 976.686 117 977.753 117C978.286 117 978.753 117.133 979.153 117.4C979.686 117.533 980.02 118.133 980.153 119.2L990.753 176.8C991.02 177.867 991.086 178.733 990.953 179.4C990.82 179.933 990.553 180.333 990.153 180.6C989.753 180.733 989.353 180.733 988.953 180.6C988.553 180.467 988.22 180.133 987.953 179.6C980.22 164.8 972.753 153.133 965.553 144.6C958.353 135.933 950.953 129.8 943.353 126.2C935.886 122.467 927.686 120.6 918.753 120.6C908.753 120.6 900.953 123.133 895.353 128.2C889.886 133.133 887.153 139.8 887.153 148.2C887.153 153.8 888.42 158.867 890.953 163.4C893.62 167.933 898.286 172.133 904.953 176C911.62 179.867 921.086 183.533 933.353 187C947.353 191 958.62 196 967.153 202C975.686 207.867 981.82 214.6 985.553 222.2C989.286 229.8 991.153 238.267 991.153 247.6C991.153 258.533 988.486 268 983.153 276C977.953 283.867 970.886 290 961.953 294.4C953.02 298.667 942.886 300.8 931.553 300.8C924.22 300.8 917.886 299.733 912.553 297.6C907.22 295.6 902.886 293.6 899.553 291.6C896.353 289.467 894.353 288.4 893.553 288.4C892.886 288.4 891.086 289.333 888.153 291.2C885.353 293.067 882.42 295 879.353 297C876.42 298.867 874.42 299.8 873.353 299.8C872.686 299.8 872.02 299.467 871.353 298.8C870.686 298.267 870.22 297.333 869.953 296L861.353 246.6C861.22 245.133 861.22 244.133 861.353 243.6C861.486 242.933 861.753 242.467 862.153 242.2C862.553 241.933 862.886 241.933 863.153 242.2C863.42 242.333 863.753 242.667 864.153 243.2C874.82 262.667 885.486 276.467 896.153 284.6C906.82 292.733 917.42 296.8 927.953 296.8ZM1023.4 128L1006 124.4C1005.2 124.267 1004.67 124.067 1004.4 123.8C1004.14 123.533 1004 123.2 1004 122.8C1004 122.4 1004.14 122.067 1004.4 121.8C1004.67 121.533 1005 121.4 1005.4 121.4H1023C1023.8 121.4 1024.47 121.267 1025 121C1025.67 120.733 1026.27 120.267 1026.8 119.6L1065.4 81.6C1066.07 80.9333 1066.74 80.4 1067.4 80C1068.2 79.6 1068.94 79.4 1069.6 79.4C1070.4 79.4 1071 79.6667 1071.4 80.2C1071.94 80.7333 1072.2 81.4667 1072.2 82.4V250.8C1072.2 261.6 1074.2 269.667 1078.2 275C1082.34 280.2 1087.94 282.8 1095 282.8C1097.54 282.8 1099.94 282.467 1102.2 281.8C1104.47 281 1106.6 279.8 1108.6 278.2C1110.6 276.467 1112.34 274.267 1113.8 271.6C1115.4 268.933 1116.74 265.667 1117.8 261.8C1118.07 261 1118.47 260.6 1119 260.6C1119.67 260.6 1119.87 261.067 1119.6 262C1117.47 270.8 1114.47 278.067 1110.6 283.8C1106.87 289.4 1102 293.6 1096 296.4C1090.14 299.2 1082.94 300.6 1074.4 300.6C1058.94 300.6 1047 296.933 1038.6 289.6C1030.2 282.267 1026 271 1026 255.8V131.8C1026 130.6 1025.8 129.733 1025.4 129.2C1025.14 128.533 1024.47 128.133 1023.4 128ZM1057.4 125.6L1058.8 121.4H1118.2C1118.87 121.4 1119.34 121.533 1119.6 121.8C1120 121.933 1120.2 122.333 1120.2 123C1120.2 123.667 1119.74 124.267 1118.8 124.8C1118 125.333 1116.8 125.6 1115.2 125.6H1057.4ZM1240.12 253.6L1216.72 314.4L1148.12 151.4C1144.78 143.267 1141.05 137 1136.92 132.6C1132.92 128.067 1128.38 125.333 1123.32 124.4C1121.98 124.133 1121.18 123.867 1120.92 123.6C1120.65 123.333 1120.52 123.067 1120.52 122.8C1120.52 122.267 1120.72 121.933 1121.12 121.8C1121.38 121.533 1121.72 121.4 1122.12 121.4H1212.52C1213.18 121.4 1213.65 121.533 1213.92 121.8C1214.18 121.933 1214.32 122.333 1214.32 123C1214.32 123.4 1214.12 123.733 1213.72 124C1213.45 124.133 1212.98 124.267 1212.32 124.4L1198.52 126.4C1195.32 126.8 1193.32 128.333 1192.52 131C1191.85 133.533 1192.45 137 1194.32 141.4L1240.12 253.6ZM1205.12 339.4L1224.12 291.2L1226.72 284.2L1279.12 147.4C1281.65 140.6 1282.12 135.733 1280.52 132.8C1279.05 129.867 1275.92 127.867 1271.12 126.8L1260.12 124.6C1259.32 124.333 1258.72 124.133 1258.32 124C1258.05 123.733 1257.92 123.4 1257.92 123C1257.92 122.467 1258.05 122.067 1258.32 121.8C1258.72 121.533 1259.18 121.4 1259.72 121.4H1308.52C1309.18 121.4 1309.65 121.533 1309.92 121.8C1310.32 122.067 1310.52 122.467 1310.52 123C1310.52 123.4 1310.32 123.733 1309.92 124C1309.65 124.133 1309.12 124.267 1308.32 124.4C1301.25 125.733 1295.78 128.067 1291.92 131.4C1288.05 134.733 1284.72 140.067 1281.92 147.4L1207.12 342C1202.45 354.4 1198.38 364.467 1194.92 372.2C1191.58 380.067 1187.65 385.8 1183.12 389.4C1178.58 393.133 1172.25 395 1164.12 395C1153.85 395 1145.58 391.867 1139.32 385.6C1133.05 379.467 1129.92 372 1129.92 363.2C1129.92 356.667 1131.65 351.533 1135.12 347.8C1138.58 344.067 1142.92 342.2 1148.12 342.2C1152.65 342.2 1156.38 343.667 1159.32 346.6C1162.38 349.667 1164.72 354 1166.32 359.6L1168.72 367.6C1169.65 371.467 1171.05 375 1172.92 378.2C1174.92 381.533 1177.52 383.2 1180.72 383.2C1183.25 383.2 1185.72 381.467 1188.12 378C1190.52 374.533 1193.05 369.467 1195.72 362.8C1198.52 356.267 1201.65 348.467 1205.12 339.4ZM1381.49 2.39999V286C1381.49 287.733 1381.82 289.133 1382.49 290.2C1383.29 291.267 1384.56 291.933 1386.29 292.2L1397.29 294.2C1398.09 294.2 1398.62 294.4 1398.89 294.8C1399.16 295.067 1399.29 295.4 1399.29 295.8C1399.29 296.067 1399.16 296.333 1398.89 296.6C1398.62 296.867 1398.22 297 1397.69 297H1317.09C1316.69 297 1316.29 296.867 1315.89 296.6C1315.62 296.333 1315.49 296.067 1315.49 295.8C1315.49 295.4 1315.69 295.067 1316.09 294.8C1316.49 294.4 1317.16 294.133 1318.09 294L1328.89 292.2C1330.62 291.933 1331.82 291.267 1332.49 290.2C1333.29 289.133 1333.69 287.8 1333.69 286.2V22.4C1333.69 21.6 1333.49 21 1333.09 20.6C1332.69 20.0667 1332.02 19.8 1331.09 19.8H1318.09C1317.42 19.8 1316.96 19.6667 1316.69 19.4C1316.42 19.1333 1316.29 18.8 1316.29 18.4C1316.29 17.8667 1316.42 17.5333 1316.69 17.4C1317.09 17.1333 1317.49 16.9333 1317.89 16.8L1375.29 0.799987C1376.49 0.533324 1377.29 0.399992 1377.69 0.399992C1378.22 0.266652 1378.76 0.199983 1379.29 0.199983C1379.96 0.199983 1380.49 0.399984 1380.89 0.799987C1381.29 1.19999 1381.49 1.73332 1381.49 2.39999ZM1478.34 120.2V286C1478.34 287.733 1478.67 289.133 1479.34 290.2C1480.14 291.267 1481.4 291.933 1483.14 292.2L1494.14 294.2C1494.94 294.2 1495.47 294.4 1495.74 294.8C1496 295.067 1496.14 295.4 1496.14 295.8C1496.14 296.067 1496 296.333 1495.74 296.6C1495.47 296.867 1495.07 297 1494.54 297H1413.94C1413.54 297 1413.14 296.867 1412.74 296.6C1412.47 296.333 1412.34 296.067 1412.34 295.8C1412.34 295.4 1412.47 295.133 1412.74 295C1413 294.733 1413.54 294.533 1414.34 294.4L1425.74 292.2C1427.47 291.933 1428.67 291.267 1429.34 290.2C1430.14 289.133 1430.54 287.8 1430.54 286.2V140C1430.54 139.2 1430.34 138.6 1429.94 138.2C1429.54 137.667 1428.87 137.4 1427.94 137.4H1414.94C1414.27 137.4 1413.8 137.267 1413.54 137C1413.27 136.733 1413.14 136.4 1413.14 136C1413.14 135.6 1413.27 135.333 1413.54 135.2C1413.94 134.933 1414.34 134.733 1414.74 134.6L1472.14 118.6C1473.34 118.2 1474.14 118 1474.54 118C1475.07 117.867 1475.6 117.8 1476.14 117.8C1476.8 117.8 1477.34 118.067 1477.74 118.6C1478.14 119 1478.34 119.533 1478.34 120.2ZM1453.54 92.6C1445.14 92.6 1438.27 89.8 1432.94 84.2C1427.74 78.6 1425.14 71.8 1425.14 63.8C1425.14 55.6667 1427.74 48.8 1432.94 43.2C1438.27 37.6 1445.14 34.8 1453.54 34.8C1461.94 34.8 1468.8 37.6 1474.14 43.2C1479.6 48.8 1482.34 55.6667 1482.34 63.8C1482.34 71.8 1479.6 78.6 1474.14 84.2C1468.8 89.8 1461.94 92.6 1453.54 92.6ZM1582.64 296.8C1591.84 296.8 1599.11 294.4 1604.44 289.6C1609.91 284.8 1612.64 278.533 1612.64 270.8C1612.64 265.333 1611.37 260.4 1608.84 256C1606.31 251.6 1601.97 247.533 1595.84 243.8C1589.84 240.067 1581.57 236.533 1571.04 233.2C1555.31 228 1542.97 222.333 1534.04 216.2C1525.11 209.933 1518.71 203 1514.84 195.4C1511.11 187.667 1509.24 178.933 1509.24 169.2C1509.24 152.533 1514.91 139.667 1526.24 130.6C1537.57 121.533 1552.71 117 1571.64 117C1579.77 117 1586.44 117.8 1591.64 119.4C1596.84 120.867 1600.84 122.4 1603.64 124C1606.44 125.6 1608.24 126.4 1609.04 126.4C1610.37 126.4 1612.71 125.6 1616.04 124C1619.37 122.4 1622.64 120.867 1625.84 119.4C1629.17 117.8 1631.37 117 1632.44 117C1632.97 117 1633.44 117.133 1633.84 117.4C1634.37 117.533 1634.71 118.133 1634.84 119.2L1645.44 176.8C1645.71 177.867 1645.77 178.733 1645.64 179.4C1645.51 179.933 1645.24 180.333 1644.84 180.6C1644.44 180.733 1644.04 180.733 1643.64 180.6C1643.24 180.467 1642.91 180.133 1642.64 179.6C1634.91 164.8 1627.44 153.133 1620.24 144.6C1613.04 135.933 1605.64 129.8 1598.04 126.2C1590.57 122.467 1582.37 120.6 1573.44 120.6C1563.44 120.6 1555.64 123.133 1550.04 128.2C1544.57 133.133 1541.84 139.8 1541.84 148.2C1541.84 153.8 1543.11 158.867 1545.64 163.4C1548.31 167.933 1552.97 172.133 1559.64 176C1566.31 179.867 1575.77 183.533 1588.04 187C1602.04 191 1613.31 196 1621.84 202C1630.37 207.867 1636.51 214.6 1640.24 222.2C1643.97 229.8 1645.84 238.267 1645.84 247.6C1645.84 258.533 1643.17 268 1637.84 276C1632.64 283.867 1625.57 290 1616.64 294.4C1607.71 298.667 1597.57 300.8 1586.24 300.8C1578.91 300.8 1572.57 299.733 1567.24 297.6C1561.91 295.6 1557.57 293.6 1554.24 291.6C1551.04 289.467 1549.04 288.4 1548.24 288.4C1547.57 288.4 1545.77 289.333 1542.84 291.2C1540.04 293.067 1537.11 295 1534.04 297C1531.11 298.867 1529.11 299.8 1528.04 299.8C1527.37 299.8 1526.71 299.467 1526.04 298.8C1525.37 298.267 1524.91 297.333 1524.64 296L1516.04 246.6C1515.91 245.133 1515.91 244.133 1516.04 243.6C1516.17 242.933 1516.44 242.467 1516.84 242.2C1517.24 241.933 1517.57 241.933 1517.84 242.2C1518.11 242.333 1518.44 242.667 1518.84 243.2C1529.51 262.667 1540.17 276.467 1550.84 284.6C1561.51 292.733 1572.11 296.8 1582.64 296.8ZM1678.09 128L1660.69 124.4C1659.89 124.267 1659.36 124.067 1659.09 123.8C1658.82 123.533 1658.69 123.2 1658.69 122.8C1658.69 122.4 1658.82 122.067 1659.09 121.8C1659.36 121.533 1659.69 121.4 1660.09 121.4H1677.69C1678.49 121.4 1679.16 121.267 1679.69 121C1680.36 120.733 1680.96 120.267 1681.49 119.6L1720.09 81.6C1720.76 80.9333 1721.42 80.4 1722.09 80C1722.89 79.6 1723.62 79.4 1724.29 79.4C1725.09 79.4 1725.69 79.6667 1726.09 80.2C1726.62 80.7333 1726.89 81.4667 1726.89 82.4V250.8C1726.89 261.6 1728.89 269.667 1732.89 275C1737.02 280.2 1742.62 282.8 1749.69 282.8C1752.22 282.8 1754.62 282.467 1756.89 281.8C1759.16 281 1761.29 279.8 1763.29 278.2C1765.29 276.467 1767.02 274.267 1768.49 271.6C1770.09 268.933 1771.42 265.667 1772.49 261.8C1772.76 261 1773.16 260.6 1773.69 260.6C1774.36 260.6 1774.56 261.067 1774.29 262C1772.16 270.8 1769.16 278.067 1765.29 283.8C1761.56 289.4 1756.69 293.6 1750.69 296.4C1744.82 299.2 1737.62 300.6 1729.09 300.6C1713.62 300.6 1701.69 296.933 1693.29 289.6C1684.89 282.267 1680.69 271 1680.69 255.8V131.8C1680.69 130.6 1680.49 129.733 1680.09 129.2C1679.82 128.533 1679.16 128.133 1678.09 128ZM1712.09 125.6L1713.49 121.4H1772.89C1773.56 121.4 1774.02 121.533 1774.29 121.8C1774.69 121.933 1774.89 122.333 1774.89 123C1774.89 123.667 1774.42 124.267 1773.49 124.8C1772.69 125.333 1771.49 125.6 1769.89 125.6H1712.09ZM1942.08 193.6C1942.08 194.8 1941.68 195.733 1940.88 196.4C1940.21 197.067 1939.08 197.4 1937.48 197.4H1813.68V194H1891.08C1893.34 194 1894.48 192.733 1894.48 190.2C1894.48 166.467 1891.28 148.933 1884.88 137.6C1878.61 126.267 1870.94 120.6 1861.88 120.6C1854.41 120.6 1847.94 123.2 1842.48 128.4C1837.01 133.467 1832.74 141.267 1829.68 151.8C1826.74 162.333 1825.28 175.733 1825.28 192C1825.28 219.467 1831.01 240.067 1842.48 253.8C1853.94 267.533 1869.01 274.4 1887.68 274.4C1901.41 274.4 1913.01 270.6 1922.48 263C1932.08 255.267 1937.41 244.867 1938.48 231.8C1938.61 231.267 1938.81 230.933 1939.08 230.8C1939.34 230.533 1939.54 230.4 1939.68 230.4C1939.94 230.4 1940.21 230.533 1940.48 230.8C1940.74 231.067 1940.88 231.533 1940.88 232.2C1940.08 245.4 1936.21 257.2 1929.28 267.6C1922.48 277.867 1913.41 286 1902.08 292C1890.88 298 1878.28 301 1864.28 301C1847.74 301 1833.21 297.333 1820.68 290C1808.28 282.667 1798.54 272.4 1791.48 259.2C1784.41 245.867 1780.88 230.333 1780.88 212.6C1780.88 193.667 1784.41 177.067 1791.48 162.8C1798.68 148.533 1808.81 137.4 1821.88 129.4C1834.94 121.4 1850.21 117.4 1867.68 117.4C1882.74 117.4 1895.81 120.733 1906.88 127.4C1918.08 133.933 1926.74 142.933 1932.88 154.4C1939.01 165.867 1942.08 178.933 1942.08 193.6ZM2021.29 120.2V286C2021.29 287.733 2021.62 289.133 2022.29 290.2C2023.09 291.267 2024.35 291.933 2026.09 292.2L2037.09 294.2C2038.42 294.467 2039.09 295 2039.09 295.8C2039.09 296.6 2038.55 297 2037.49 297H1956.89C1956.49 297 1956.09 296.867 1955.69 296.6C1955.42 296.333 1955.29 296.067 1955.29 295.8C1955.29 295.4 1955.42 295.133 1955.69 295C1955.95 294.733 1956.49 294.533 1957.29 294.4L1968.69 292.2C1970.42 291.933 1971.62 291.267 1972.29 290.2C1973.09 289.133 1973.49 287.8 1973.49 286.2V140C1973.49 139.2 1973.29 138.6 1972.89 138.2C1972.49 137.667 1971.82 137.4 1970.89 137.4H1957.89C1957.22 137.4 1956.75 137.267 1956.49 137C1956.22 136.733 1956.09 136.4 1956.09 136C1956.09 135.6 1956.22 135.333 1956.49 135.2C1956.89 134.933 1957.29 134.733 1957.69 134.6L2015.09 118.6C2016.29 118.2 2017.09 118 2017.49 118C2018.02 117.867 2018.55 117.8 2019.09 117.8C2019.75 117.8 2020.29 118.067 2020.69 118.6C2021.09 119 2021.29 119.533 2021.29 120.2ZM2017.29 159.6L2015.29 157.6L2022.49 151.2C2035.69 139.333 2047.09 130.733 2056.69 125.4C2066.42 120.067 2075.49 117.4 2083.89 117.4C2096.15 117.4 2105.69 121.267 2112.49 129C2119.29 136.6 2123.69 148.533 2125.69 164.8L2140.69 284.8C2140.95 286.933 2141.49 288.667 2142.29 290C2143.22 291.333 2144.69 292.2 2146.69 292.6L2156.49 294.4C2157.15 294.4 2157.62 294.533 2157.89 294.8C2158.15 295.067 2158.29 295.4 2158.29 295.8C2158.29 296.067 2158.15 296.333 2157.89 296.6C2157.62 296.867 2157.22 297 2156.69 297H2074.69C2073.49 297 2072.89 296.6 2072.89 295.8C2072.89 295 2073.62 294.467 2075.09 294.2L2086.49 292.2C2088.62 291.933 2090.09 291.133 2090.89 289.8C2091.82 288.467 2092.15 286.8 2091.89 284.8L2078.69 169.6C2077.35 158.8 2074.82 150.933 2071.09 146C2067.35 141.067 2061.75 138.6 2054.29 138.6C2049.35 138.6 2044.49 139.867 2039.69 142.4C2034.89 144.8 2029.75 148.467 2024.29 153.4L2017.29 159.6Z" fill="#453676"/>
</svg>
