<svg width="209" height="32" viewBox="0 0 209 32" fill="none" xmlns="http://www.w3.org/2000/svg">
<path d="M7.496 23.328C7.496 23.5307 7.42133 23.6907 7.272 23.808C7.13333 23.9253 6.90933 23.9893 6.6 24H1.208C0.898667 23.9893 0.669333 23.9253 0.52 23.808C0.370667 23.6907 0.296 23.5307 0.296 23.328C0.296 22.9867 0.514667 22.7307 0.952 22.56L1.72 22.336C2.21067 22.1653 2.552 21.9627 2.744 21.728C2.936 21.4827 3.032 21.104 3.032 20.592V6.448C3.032 6.128 2.99467 5.872 2.92 5.68C2.84533 5.47733 2.664 5.19467 2.376 4.832L1 3.072C0.850667 2.848 0.744 2.67733 0.68 2.56C0.616 2.44267 0.584 2.32 0.584 2.192C0.584 2 0.648 1.856 0.776 1.76C0.914667 1.65333 1.096 1.6 1.32 1.6H5.112C5.4 1.6 5.64 1.65333 5.832 1.76C6.024 1.86666 6.22667 2.064 6.44 2.352L18.76 19.088L18.056 20.8V5.008C18.056 4.50667 17.9653 4.13867 17.784 3.904C17.6133 3.65867 17.2667 3.44533 16.744 3.264L15.928 3.04C15.4907 2.848 15.272 2.592 15.272 2.272C15.272 2.05867 15.3467 1.89333 15.496 1.776C15.6453 1.65867 15.8693 1.6 16.168 1.6H21.576C21.8747 1.6 22.0987 1.65867 22.248 1.776C22.3973 1.89333 22.472 2.05867 22.472 2.272C22.472 2.61333 22.2533 2.86933 21.816 3.04L21.048 3.264C20.5573 3.424 20.216 3.62667 20.024 3.872C19.832 4.10667 19.736 4.48533 19.736 5.008V19.568C19.736 19.888 19.7627 20.1653 19.816 20.4C19.88 20.624 19.9867 20.8373 20.136 21.04L21.144 22.4C21.336 22.6453 21.4533 22.8373 21.496 22.976C21.5387 23.104 21.56 23.232 21.56 23.36C21.56 23.552 21.4907 23.7067 21.352 23.824C21.224 23.9413 21.032 24 20.776 24H16.488C16.0187 24 15.784 23.808 15.784 23.424C15.784 23.264 15.752 23.1093 15.688 22.96C15.624 22.8107 15.448 22.5493 15.16 22.176L3.272 5.984L4.712 5.04V20.608C4.712 21.0987 4.80267 21.4613 4.984 21.696C5.16533 21.9307 5.512 22.144 6.024 22.336L6.84 22.56C7.27733 22.7307 7.496 22.9867 7.496 23.328ZM34.2368 22.016V21.712L33.9488 21.664V12.032C33.9488 11.2853 33.7621 10.7093 33.3888 10.304C33.0154 9.888 32.4874 9.68 31.8048 9.68C31.1648 9.68 30.6741 9.81867 30.3328 10.096C29.9914 10.3733 29.8208 10.704 29.8208 11.088V12.496C29.8208 13.1253 29.6074 13.616 29.1808 13.968C28.7648 14.32 28.1781 14.496 27.4208 14.496C26.7808 14.496 26.2954 14.3413 25.9648 14.032C25.6341 13.7227 25.4688 13.296 25.4688 12.752C25.4688 12.0907 25.7354 11.4453 26.2688 10.816C26.8128 10.176 27.6128 9.648 28.6688 9.232C29.7354 8.816 31.0421 8.608 32.5888 8.608C34.5301 8.608 35.9701 9.00267 36.9088 9.792C37.8581 10.5813 38.3328 11.648 38.3328 12.992V21.312C38.3328 21.6213 38.3968 21.8507 38.5248 22C38.6528 22.1493 38.8234 22.224 39.0368 22.224C39.2714 22.224 39.4474 22.1707 39.5648 22.064C39.6821 21.9467 39.7834 21.824 39.8688 21.696C39.9221 21.632 39.9754 21.5787 40.0288 21.536C40.0928 21.4827 40.1674 21.456 40.2528 21.456C40.3808 21.456 40.4714 21.504 40.5248 21.6C40.5781 21.6853 40.6048 21.7973 40.6048 21.936C40.6048 22.2773 40.4821 22.64 40.2368 23.024C39.9914 23.3973 39.6234 23.7173 39.1328 23.984C38.6528 24.2507 38.0448 24.384 37.3088 24.384C36.3594 24.384 35.6074 24.176 35.0528 23.76C34.5088 23.3333 34.2368 22.752 34.2368 22.016ZM24.7808 20.672C24.7808 19.36 25.3621 18.2987 26.5248 17.488C27.6981 16.6773 29.3461 16.272 31.4688 16.272C32.1621 16.272 32.7808 16.336 33.3248 16.464C33.8688 16.5813 34.3434 16.736 34.7488 16.928L34.4288 17.872C34.0554 17.7013 33.6768 17.568 33.2928 17.472C32.9194 17.376 32.5141 17.328 32.0768 17.328C31.2021 17.328 30.5194 17.5573 30.0288 18.016C29.5381 18.4747 29.2928 19.1147 29.2928 19.936C29.2928 20.7467 29.5008 21.3707 29.9168 21.808C30.3434 22.2347 30.8928 22.448 31.5648 22.448C32.1194 22.448 32.6581 22.32 33.1808 22.064C33.7034 21.808 34.1408 21.4507 34.4928 20.992L34.8288 21.824C34.2528 22.6453 33.4794 23.28 32.5087 23.728C31.5381 24.1653 30.5088 24.384 29.4208 24.384C28.0448 24.384 26.9248 24.0427 26.0608 23.36C25.2074 22.6773 24.7808 21.7813 24.7808 20.672ZM47.8138 1.152V22.336L45.8138 23.872C45.3231 24.064 44.9711 24.192 44.7578 24.256C44.5444 24.32 44.3418 24.352 44.1498 24.352C43.9151 24.352 43.7284 24.288 43.5898 24.16C43.4511 24.032 43.3818 23.84 43.3818 23.584V3.744C43.3818 3.488 43.3391 3.30667 43.2538 3.2C43.1791 3.08267 43.0564 3.01333 42.8858 2.992L42.0218 2.928C41.8404 2.88533 41.7124 2.82133 41.6378 2.736C41.5631 2.65067 41.5258 2.53867 41.5258 2.4C41.5258 2.24 41.5738 2.112 41.6698 2.016C41.7658 1.90933 41.9418 1.808 42.1978 1.712L45.3338 0.608C45.7178 0.458666 46.0218 0.357332 46.2458 0.303999C46.4698 0.239998 46.6671 0.207998 46.8378 0.207998C47.1684 0.207998 47.4138 0.298665 47.5738 0.48C47.7338 0.650665 47.8138 0.874665 47.8138 1.152ZM46.9658 13.456L46.2938 12.608C47.1364 11.328 48.0911 10.3413 49.1578 9.648C50.2244 8.944 51.4031 8.592 52.6938 8.592C53.9418 8.592 55.0564 8.912 56.0378 9.552C57.0191 10.1813 57.7924 11.0613 58.3577 12.192C58.9231 13.312 59.2058 14.608 59.2058 16.08C59.2058 17.7653 58.8698 19.232 58.1978 20.48C57.5364 21.7173 56.6298 22.6773 55.4778 23.36C54.3364 24.0427 53.0511 24.384 51.6218 24.384C50.3738 24.384 49.2751 24.096 48.3258 23.52C47.3764 22.944 46.5924 22.1067 45.9738 21.008L46.9978 20.176C47.4991 21.0187 48.0698 21.6533 48.7098 22.08C49.3498 22.496 50.0431 22.704 50.7898 22.704C51.5258 22.704 52.1764 22.4907 52.7418 22.064C53.3178 21.6267 53.7711 20.9547 54.1018 20.048C54.4324 19.1307 54.5978 17.968 54.5978 16.56C54.5978 15.2267 54.4378 14.1333 54.1178 13.28C53.7978 12.416 53.3604 11.7707 52.8058 11.344C52.2618 10.9173 51.6324 10.704 50.9178 10.704C50.1818 10.704 49.4778 10.928 48.8058 11.376C48.1444 11.824 47.5311 12.5173 46.9658 13.456ZM69.7373 8.592C71.3586 8.592 72.7826 8.928 74.0093 9.6C75.2466 10.272 76.2066 11.2053 76.8893 12.4C77.5826 13.584 77.9293 14.96 77.9293 16.528C77.9293 18.0213 77.5719 19.3653 76.8573 20.56C76.1533 21.744 75.1719 22.6773 73.9133 23.36C72.6653 24.0427 71.2199 24.384 69.5773 24.384C67.9559 24.384 66.5266 24.048 65.2893 23.376C64.0626 22.704 63.1026 21.7707 62.4093 20.576C61.7159 19.3813 61.3693 18.0107 61.3693 16.464C61.3693 14.9493 61.7213 13.6 62.4253 12.416C63.1399 11.232 64.1213 10.2987 65.3693 9.616C66.6279 8.93333 68.0839 8.592 69.7373 8.592ZM70.8413 22.848C71.5559 22.7413 72.1319 22.4107 72.5693 21.856C73.0173 21.2907 73.2999 20.5173 73.4173 19.536C73.5346 18.544 73.4706 17.3493 73.2253 15.952C72.9906 14.5547 72.6386 13.408 72.1693 12.512C71.7106 11.6053 71.1666 10.9493 70.5373 10.544C69.9079 10.1387 69.2199 10 68.4733 10.128C67.7479 10.2347 67.1666 10.5707 66.7293 11.136C66.2919 11.6907 66.0146 12.464 65.8973 13.456C65.7799 14.4373 65.8439 15.632 66.0893 17.04C66.3239 18.416 66.6706 19.5573 67.1293 20.464C67.5986 21.3707 68.1479 22.0267 68.7773 22.432C69.4066 22.8267 70.0946 22.9653 70.8413 22.848ZM87.0312 23.056C87.7566 23.056 88.3219 22.8693 88.7273 22.496C89.1326 22.1227 89.3353 21.6533 89.3353 21.088C89.3353 20.736 89.2553 20.416 89.0953 20.128C88.9353 19.8293 88.6313 19.5573 88.1833 19.312C87.7459 19.0667 87.1006 18.8427 86.2473 18.64C84.6473 18.2987 83.4046 17.872 82.5193 17.36C81.6339 16.848 81.0206 16.2613 80.6793 15.6C80.3379 14.928 80.1673 14.1867 80.1673 13.376C80.1673 11.904 80.6846 10.7413 81.7193 9.888C82.7539 9.024 84.2419 8.592 86.1833 8.592C86.8979 8.592 87.4793 8.65067 87.9273 8.768C88.3753 8.88533 88.7379 9.008 89.0153 9.136C89.3033 9.25333 89.5486 9.312 89.7513 9.312C89.9753 9.312 90.1566 9.25333 90.2953 9.136C90.4339 9.008 90.5673 8.88533 90.6953 8.768C90.8339 8.64 91.0099 8.576 91.2233 8.576C91.3726 8.576 91.5059 8.62933 91.6233 8.736C91.7406 8.832 91.8419 9.01333 91.9273 9.28L92.9513 12.624C93.0686 12.9653 93.1059 13.248 93.0633 13.472C93.0206 13.6853 92.8873 13.8347 92.6633 13.92C92.4393 14.0053 92.2419 14.0107 92.0713 13.936C91.9113 13.8507 91.7566 13.6907 91.6073 13.456C91.1166 12.592 90.5939 11.904 90.0393 11.392C89.4953 10.8693 88.9193 10.496 88.3113 10.272C87.7139 10.0373 87.0846 9.92 86.4233 9.92C85.5273 9.92 84.8499 10.112 84.3913 10.496C83.9433 10.8693 83.7193 11.3707 83.7193 12C83.7193 12.3733 83.8153 12.7147 84.0073 13.024C84.1993 13.3333 84.5566 13.616 85.0793 13.872C85.6126 14.128 86.3699 14.3733 87.3513 14.608C88.7166 14.9067 89.7993 15.296 90.5993 15.776C91.3993 16.2453 91.9753 16.8107 92.3273 17.472C92.6793 18.1333 92.8553 18.9067 92.8553 19.792C92.8553 20.6987 92.6206 21.4987 92.1513 22.192C91.6819 22.8853 91.0313 23.424 90.1993 23.808C89.3673 24.192 88.4019 24.384 87.3033 24.384C86.6206 24.384 86.0659 24.3147 85.6393 24.176C85.2233 24.0373 84.8766 23.904 84.5993 23.776C84.3219 23.6373 84.0659 23.568 83.8313 23.568C83.6179 23.568 83.4313 23.6373 83.2713 23.776C83.1113 23.904 82.9566 24.0373 82.8073 24.176C82.6579 24.3147 82.4873 24.384 82.2953 24.384C82.1459 24.384 82.0179 24.3253 81.9113 24.208C81.8046 24.1013 81.7299 23.92 81.6873 23.664L81.0473 20.512C80.9726 20.1173 80.9566 19.824 80.9993 19.632C81.0526 19.44 81.1806 19.3013 81.3832 19.216C81.5966 19.1307 81.7833 19.1413 81.9433 19.248C82.1139 19.3547 82.2846 19.5413 82.4553 19.808C83.1273 20.9707 83.8526 21.8027 84.6313 22.304C85.4206 22.8053 86.2206 23.056 87.0312 23.056ZM96.3278 10.416L95.5278 10.192C95.2931 10.1173 95.1224 10.032 95.0158 9.936C94.9198 9.82933 94.8717 9.70133 94.8717 9.552C94.8717 9.36 94.9358 9.216 95.0638 9.12C95.2024 9.01333 95.3838 8.96 95.6078 8.96H96.6318C96.8664 8.96 97.0638 8.91733 97.2238 8.832C97.3838 8.74667 97.5491 8.58667 97.7198 8.352L99.5918 5.84C99.7944 5.584 99.9918 5.39733 100.184 5.28C100.376 5.16267 100.562 5.104 100.744 5.104C100.957 5.104 101.122 5.17333 101.24 5.312C101.357 5.44 101.416 5.62667 101.416 5.872V19.52C101.416 20.2773 101.56 20.8587 101.848 21.264C102.146 21.6587 102.562 21.856 103.096 21.856C103.469 21.856 103.762 21.7867 103.976 21.648C104.189 21.4987 104.36 21.328 104.488 21.136C104.626 20.9333 104.754 20.752 104.872 20.592C105 20.432 105.154 20.3307 105.336 20.288C105.485 20.2773 105.602 20.32 105.688 20.416C105.773 20.512 105.816 20.6773 105.816 20.912C105.794 21.5307 105.592 22.1013 105.208 22.624C104.824 23.136 104.296 23.5467 103.624 23.856C102.952 24.1653 102.184 24.32 101.32 24.32C99.9758 24.32 98.9198 23.984 98.1518 23.312C97.3838 22.64 96.9998 21.616 96.9998 20.24V11.296C96.9998 11.04 96.9464 10.848 96.8398 10.72C96.7438 10.592 96.5731 10.4907 96.3278 10.416ZM99.6878 10.416L99.7038 8.96H104.952C105.186 8.96 105.368 9.008 105.496 9.104C105.624 9.18933 105.688 9.32267 105.688 9.504C105.688 9.76 105.56 9.97867 105.304 10.16C105.048 10.3307 104.632 10.416 104.056 10.416H99.6878ZM117.459 21.552L115.123 25.936L108.675 11.568C108.483 11.12 108.281 10.8053 108.067 10.624C107.865 10.4427 107.561 10.2987 107.155 10.192C106.953 10.128 106.814 10.048 106.739 9.952C106.665 9.856 106.627 9.728 106.627 9.568C106.627 9.376 106.697 9.22667 106.835 9.12C106.974 9.01333 107.161 8.96 107.395 8.96H114.579C114.814 8.96 115.001 9.01333 115.139 9.12C115.278 9.22667 115.347 9.376 115.347 9.568C115.347 9.728 115.299 9.856 115.203 9.952C115.118 10.048 114.963 10.1227 114.739 10.176L114.099 10.304C113.63 10.4 113.353 10.576 113.267 10.832C113.193 11.0773 113.283 11.504 113.539 12.112L117.459 21.552ZM114.451 26.624L115.523 24L116.051 22.944L120.275 12.336C120.521 11.7067 120.601 11.248 120.515 10.96C120.43 10.672 120.142 10.4747 119.651 10.368L118.979 10.224C118.766 10.16 118.611 10.0747 118.515 9.968C118.419 9.86133 118.371 9.728 118.371 9.568C118.371 9.376 118.441 9.22667 118.579 9.12C118.718 9.01333 118.905 8.96 119.139 8.96H123.619C123.865 8.96 124.057 9.01333 124.195 9.12C124.334 9.22667 124.403 9.376 124.403 9.568C124.403 9.70667 124.361 9.82933 124.275 9.936C124.19 10.032 124.041 10.1227 123.827 10.208C123.347 10.3573 122.974 10.5547 122.707 10.8C122.451 11.0453 122.206 11.4667 121.971 12.064L116.227 26.32C115.662 27.7173 115.134 28.8 114.643 29.568C114.153 30.3467 113.625 30.8853 113.059 31.184C112.494 31.4827 111.801 31.632 110.979 31.632C109.785 31.632 108.835 31.312 108.131 30.672C107.438 30.032 107.091 29.2427 107.091 28.304C107.091 27.6427 107.257 27.12 107.587 26.736C107.918 26.352 108.355 26.16 108.899 26.16C109.422 26.16 109.827 26.32 110.115 26.64C110.403 26.96 110.638 27.392 110.819 27.936L111.011 28.56C111.097 28.9227 111.235 29.2053 111.427 29.408C111.619 29.6107 111.838 29.712 112.083 29.712C112.339 29.712 112.579 29.6267 112.803 29.456C113.027 29.296 113.273 28.992 113.539 28.544C113.806 28.1067 114.11 27.4667 114.451 26.624ZM131.83 1.152V21.6C131.83 21.9093 131.872 22.1387 131.958 22.288C132.054 22.4373 132.192 22.5387 132.374 22.592L133.014 22.752C133.206 22.816 133.344 22.9013 133.43 23.008C133.526 23.1147 133.574 23.2427 133.574 23.392C133.574 23.584 133.504 23.7333 133.366 23.84C133.238 23.9467 133.035 24 132.758 24H126.438C126.171 24 125.974 23.9467 125.846 23.84C125.718 23.7333 125.654 23.584 125.654 23.392C125.654 23.2427 125.696 23.12 125.782 23.024C125.867 22.9173 126.006 22.832 126.198 22.768L126.854 22.592C127.035 22.5387 127.168 22.4427 127.254 22.304C127.35 22.1547 127.398 21.92 127.398 21.6V3.744C127.398 3.488 127.355 3.30667 127.27 3.2C127.195 3.08267 127.072 3.01333 126.902 2.992L126.038 2.928C125.856 2.88533 125.728 2.82133 125.654 2.736C125.579 2.65067 125.542 2.53867 125.542 2.4C125.542 2.24 125.59 2.112 125.686 2.016C125.782 1.90933 125.958 1.808 126.214 1.712L129.35 0.608C129.734 0.458666 130.038 0.357332 130.262 0.303999C130.496 0.239998 130.694 0.207998 130.854 0.207998C131.184 0.207998 131.43 0.298665 131.59 0.48C131.75 0.650665 131.83 0.874665 131.83 1.152ZM141.782 9.6V21.6C141.782 21.9093 141.825 22.1387 141.91 22.288C142.006 22.4373 142.15 22.5387 142.342 22.592L142.966 22.752C143.158 22.816 143.297 22.9013 143.382 23.008C143.478 23.1147 143.526 23.2427 143.526 23.392C143.526 23.584 143.457 23.7333 143.318 23.84C143.19 23.9467 142.988 24 142.71 24H136.406C136.129 24 135.926 23.9467 135.798 23.84C135.67 23.7333 135.606 23.584 135.606 23.392C135.606 23.2427 135.649 23.12 135.734 23.024C135.82 22.9173 135.958 22.832 136.15 22.768L136.806 22.592C136.988 22.5387 137.121 22.4427 137.206 22.304C137.302 22.1547 137.35 21.92 137.35 21.6V12.192C137.35 11.936 137.313 11.7547 137.238 11.648C137.164 11.5307 137.036 11.4613 136.854 11.44L136.006 11.376C135.825 11.3333 135.692 11.2693 135.606 11.184C135.532 11.0987 135.494 10.9867 135.494 10.848C135.494 10.6773 135.542 10.544 135.638 10.448C135.734 10.352 135.91 10.256 136.166 10.16L139.302 9.056C139.697 8.90667 140.006 8.80533 140.23 8.752C140.454 8.688 140.652 8.656 140.822 8.656C141.142 8.656 141.382 8.74667 141.542 8.928C141.702 9.09867 141.782 9.32267 141.782 9.6ZM139.254 6.256C138.412 6.256 137.734 6.03733 137.222 5.6C136.721 5.16267 136.47 4.58667 136.47 3.872C136.47 3.15733 136.721 2.58667 137.222 2.16C137.734 1.72267 138.412 1.504 139.254 1.504C140.097 1.504 140.769 1.72267 141.27 2.16C141.782 2.59733 142.038 3.168 142.038 3.872C142.038 4.58667 141.782 5.16267 141.27 5.6C140.769 6.03733 140.097 6.256 139.254 6.256ZM152.312 23.056C153.038 23.056 153.603 22.8693 154.009 22.496C154.414 22.1227 154.617 21.6533 154.617 21.088C154.617 20.736 154.537 20.416 154.377 20.128C154.217 19.8293 153.913 19.5573 153.465 19.312C153.027 19.0667 152.382 18.8427 151.529 18.64C149.929 18.2987 148.686 17.872 147.801 17.36C146.915 16.848 146.302 16.2613 145.961 15.6C145.619 14.928 145.449 14.1867 145.449 13.376C145.449 11.904 145.966 10.7413 147.001 9.888C148.035 9.024 149.523 8.592 151.465 8.592C152.179 8.592 152.761 8.65067 153.209 8.768C153.657 8.88533 154.019 9.008 154.297 9.136C154.585 9.25333 154.83 9.312 155.033 9.312C155.257 9.312 155.438 9.25333 155.577 9.136C155.715 9.008 155.849 8.88533 155.977 8.768C156.115 8.64 156.291 8.576 156.505 8.576C156.654 8.576 156.787 8.62933 156.905 8.736C157.022 8.832 157.123 9.01333 157.209 9.28L158.233 12.624C158.35 12.9653 158.387 13.248 158.345 13.472C158.302 13.6853 158.169 13.8347 157.945 13.92C157.721 14.0053 157.523 14.0107 157.353 13.936C157.193 13.8507 157.038 13.6907 156.889 13.456C156.398 12.592 155.875 11.904 155.321 11.392C154.777 10.8693 154.201 10.496 153.593 10.272C152.995 10.0373 152.366 9.92 151.705 9.92C150.809 9.92 150.131 10.112 149.673 10.496C149.225 10.8693 149.001 11.3707 149.001 12C149.001 12.3733 149.097 12.7147 149.289 13.024C149.481 13.3333 149.838 13.616 150.361 13.872C150.894 14.128 151.651 14.3733 152.633 14.608C153.998 14.9067 155.081 15.296 155.881 15.776C156.681 16.2453 157.257 16.8107 157.609 17.472C157.961 18.1333 158.137 18.9067 158.137 19.792C158.137 20.6987 157.902 21.4987 157.433 22.192C156.963 22.8853 156.313 23.424 155.481 23.808C154.649 24.192 153.683 24.384 152.585 24.384C151.902 24.384 151.347 24.3147 150.921 24.176C150.505 24.0373 150.158 23.904 149.881 23.776C149.603 23.6373 149.347 23.568 149.113 23.568C148.899 23.568 148.713 23.6373 148.553 23.776C148.393 23.904 148.238 24.0373 148.089 24.176C147.939 24.3147 147.769 24.384 147.577 24.384C147.427 24.384 147.299 24.3253 147.193 24.208C147.086 24.1013 147.011 23.92 146.969 23.664L146.329 20.512C146.254 20.1173 146.238 19.824 146.281 19.632C146.334 19.44 146.462 19.3013 146.664 19.216C146.878 19.1307 147.065 19.1413 147.225 19.248C147.395 19.3547 147.566 19.5413 147.737 19.808C148.409 20.9707 149.134 21.8027 149.913 22.304C150.702 22.8053 151.502 23.056 152.312 23.056ZM161.609 10.416L160.809 10.192C160.574 10.1173 160.404 10.032 160.297 9.936C160.201 9.82933 160.153 9.70133 160.153 9.552C160.153 9.36 160.217 9.216 160.345 9.12C160.484 9.01333 160.665 8.96 160.889 8.96H161.913C162.148 8.96 162.345 8.91733 162.505 8.832C162.665 8.74667 162.83 8.58667 163.001 8.352L164.873 5.84C165.076 5.584 165.273 5.39733 165.465 5.28C165.657 5.16267 165.844 5.104 166.025 5.104C166.238 5.104 166.404 5.17333 166.521 5.312C166.638 5.44 166.697 5.62667 166.697 5.872V19.52C166.697 20.2773 166.841 20.8587 167.129 21.264C167.428 21.6587 167.844 21.856 168.377 21.856C168.75 21.856 169.044 21.7867 169.257 21.648C169.47 21.4987 169.641 21.328 169.769 21.136C169.908 20.9333 170.036 20.752 170.153 20.592C170.281 20.432 170.436 20.3307 170.617 20.288C170.766 20.2773 170.884 20.32 170.969 20.416C171.054 20.512 171.097 20.6773 171.097 20.912C171.076 21.5307 170.873 22.1013 170.489 22.624C170.105 23.136 169.577 23.5467 168.905 23.856C168.233 24.1653 167.465 24.32 166.601 24.32C165.257 24.32 164.201 23.984 163.433 23.312C162.665 22.64 162.281 21.616 162.281 20.24V11.296C162.281 11.04 162.228 10.848 162.121 10.72C162.025 10.592 161.854 10.4907 161.609 10.416ZM164.969 10.416L164.985 8.96H170.233C170.468 8.96 170.649 9.008 170.777 9.104C170.905 9.18933 170.969 9.32267 170.969 9.504C170.969 9.76 170.841 9.97867 170.585 10.16C170.329 10.3307 169.913 10.416 169.337 10.416H164.969ZM187.477 14.656C187.477 15.1787 187.328 15.584 187.029 15.872C186.731 16.1493 186.299 16.288 185.733 16.288H175.749V15.152H182.277C182.779 15.152 183.029 14.9227 183.029 14.464C183.029 13.0027 182.773 11.8987 182.261 11.152C181.749 10.4053 181.072 10.032 180.229 10.032C179.568 10.032 178.981 10.2347 178.469 10.64C177.968 11.0453 177.573 11.632 177.285 12.4C177.008 13.1573 176.869 14.08 176.869 15.168C176.869 17.248 177.349 18.8053 178.309 19.84C179.28 20.8747 180.56 21.392 182.149 21.392C183.109 21.392 183.947 21.1947 184.661 20.8C185.376 20.4053 185.915 19.8453 186.277 19.12C186.448 18.928 186.587 18.8 186.693 18.736C186.8 18.6613 186.907 18.624 187.013 18.624C187.163 18.624 187.275 18.6933 187.349 18.832C187.424 18.9707 187.456 19.136 187.445 19.328C187.403 20.2453 187.083 21.088 186.485 21.856C185.899 22.624 185.104 23.2373 184.101 23.696C183.099 24.1547 181.952 24.384 180.661 24.384C179.136 24.384 177.787 24.0693 176.613 23.44C175.44 22.8107 174.517 21.9307 173.845 20.8C173.184 19.6587 172.853 18.3253 172.853 16.8C172.853 15.1893 173.168 13.7707 173.797 12.544C174.437 11.3067 175.355 10.3413 176.549 9.648C177.744 8.944 179.163 8.592 180.805 8.592C182.203 8.592 183.397 8.85333 184.389 9.376C185.392 9.888 186.155 10.6027 186.677 11.52C187.211 12.4267 187.477 13.472 187.477 14.656ZM195.907 9.6V21.6C195.907 21.9093 195.95 22.1387 196.035 22.288C196.131 22.4267 196.27 22.528 196.451 22.592L197.075 22.768C197.385 22.896 197.539 23.0933 197.539 23.36C197.539 23.7867 197.267 24 196.723 24H190.515C190.238 24 190.035 23.9467 189.907 23.84C189.779 23.7333 189.715 23.584 189.715 23.392C189.715 23.2427 189.758 23.12 189.843 23.024C189.939 22.9173 190.078 22.832 190.259 22.768L190.915 22.592C191.107 22.5387 191.246 22.4427 191.331 22.304C191.427 22.1547 191.475 21.92 191.475 21.6V12.192C191.475 11.936 191.433 11.7547 191.347 11.648C191.273 11.5307 191.15 11.4613 190.979 11.44L190.115 11.376C189.934 11.3333 189.801 11.2693 189.715 11.184C189.641 11.0987 189.603 10.9867 189.603 10.848C189.603 10.6773 189.651 10.544 189.747 10.448C189.854 10.352 190.035 10.256 190.291 10.16L193.427 9.056C193.801 8.91733 194.099 8.816 194.323 8.752C194.558 8.688 194.771 8.656 194.963 8.656C195.273 8.656 195.507 8.74667 195.667 8.928C195.827 9.09867 195.907 9.32267 195.907 9.6ZM195.427 13.12L194.755 12.432L195.379 11.872C196.691 10.6987 197.817 9.86133 198.755 9.36C199.694 8.848 200.585 8.592 201.427 8.592C202.718 8.592 203.715 9.01867 204.419 9.872C205.134 10.7253 205.566 11.872 205.715 13.312L206.643 21.552C206.675 21.8827 206.734 22.128 206.819 22.288C206.905 22.4373 207.043 22.544 207.235 22.608L207.827 22.768C208.019 22.832 208.158 22.9173 208.243 23.024C208.329 23.12 208.371 23.2427 208.371 23.392C208.371 23.584 208.307 23.7333 208.179 23.84C208.051 23.9467 207.849 24 207.571 24H201.299C200.755 24 200.483 23.7867 200.483 23.36C200.483 23.0933 200.638 22.896 200.947 22.768L201.587 22.592C201.79 22.528 201.945 22.4213 202.051 22.272C202.158 22.112 202.195 21.872 202.163 21.552L201.299 13.952C201.193 13.024 200.958 12.3307 200.595 11.872C200.243 11.4133 199.71 11.184 198.995 11.184C198.558 11.184 198.094 11.3013 197.603 11.536C197.123 11.7707 196.611 12.1173 196.067 12.576L195.427 13.12Z" fill="#453676"/>
</svg>
