<svg xmlns="http://www.w3.org/2000/svg" version="1.1" xmlns:xlink="http://www.w3.org/1999/xlink" width="1000" height="1000"><style>
    #light-icon {
      display: inline;
    }
    #dark-icon {
      display: none;
    }

    @media (prefers-color-scheme: dark) {
      #light-icon {
        display: none;
      }
      #dark-icon {
        display: inline;
      }
    }
  </style><g id="light-icon"><svg xmlns="http://www.w3.org/2000/svg" version="1.1" xmlns:xlink="http://www.w3.org/1999/xlink" width="1000" height="1000"><g clip-path="url(#SvgjsClipPath1188)"><rect width="1000" height="1000" fill="#f8f6ff"></rect><g transform="matrix(1.953125,0,0,1.953125,0,0)"><svg xmlns="http://www.w3.org/2000/svg" version="1.1" xmlns:xlink="http://www.w3.org/1999/xlink" width="512" height="512"><svg width="512" height="512" viewBox="0 0 512 512" fill="none" xmlns="http://www.w3.org/2000/svg">
<rect width="512" height="512" rx="256" fill="#F8F6FF"></rect>
<path d="M204.8 398.6C204.8 398.867 204.6 399.2 204.2 399.6C203.933 399.867 203.533 400 203 400H126.2C125.533 400 125.067 399.867 124.8 399.6C124.533 399.2 124.4 398.867 124.4 398.6C124.4 397.933 125.133 397.333 126.6 396.8L134.6 394.4C141.933 392.133 148.133 388.4 153.2 383.2C158.267 377.867 160.8 370.467 160.8 361V166.8C160.8 165.067 160.733 163.8 160.6 163C160.467 162.067 159.733 160.667 158.4 158.8L139.6 126.2C139.067 125 138.4 123.933 137.6 123C136.933 121.933 136.6 121.2 136.6 120.8C136.6 120.533 136.733 120.333 137 120.2C137.267 120.067 137.733 120 138.4 120H215.6C216.4 120 217.067 120.267 217.6 120.8C218.267 121.333 218.933 122.267 219.6 123.6L350.8 359.2L347.4 366.8V159C347.4 149.533 344.867 142.133 339.8 136.8C334.733 131.333 328.467 127.6 321 125.6L310 123.2C308.533 122.667 307.8 122.067 307.8 121.4C307.8 121 307.933 120.667 308.2 120.4C308.467 120.133 308.933 120 309.6 120H386.4C387.067 120 387.533 120.133 387.8 120.4C388.067 120.667 388.2 121 388.2 121.4C388.2 122.067 387.467 122.667 386 123.2L378 125.6C370.667 127.6 364.467 131.333 359.4 136.8C354.333 142.133 351.8 149.533 351.8 159V357.2C351.8 358.8 352.067 360.267 352.6 361.6C353.133 362.933 353.667 364.133 354.2 365.2L368.8 390C370.533 392.8 371.6 394.8 372 396C372.533 397.2 372.8 398.067 372.8 398.6C372.8 399 372.6 399.333 372.2 399.6C371.933 399.867 371.333 400 370.4 400H297.8C295.933 400 295 399 295 397C295 396.2 294.8 395.133 294.4 393.8C294 392.467 293.533 391.333 293 390.4L155 149.6H165.2V361.2C165.2 370.533 167.733 377.867 172.8 383.2C178 388.533 184.2 392.267 191.4 394.4L202.6 396.8C204.067 397.333 204.8 397.933 204.8 398.6Z" fill="#453676"></path>
</svg></svg></g></g><defs><clipPath id="SvgjsClipPath1188"><rect width="1000" height="1000" x="0" y="0" rx="500" ry="500"></rect></clipPath></defs></svg></g><g id="dark-icon"><svg xmlns="http://www.w3.org/2000/svg" version="1.1" xmlns:xlink="http://www.w3.org/1999/xlink" width="1000" height="1000"><g><g transform="matrix(1.953125,0,0,1.953125,0,0)"><svg xmlns="http://www.w3.org/2000/svg" version="1.1" xmlns:xlink="http://www.w3.org/1999/xlink" width="512" height="512"><svg width="512" height="512" viewBox="0 0 512 512" fill="none" xmlns="http://www.w3.org/2000/svg">
<rect width="512" height="512" rx="256" fill="#F8F6FF"></rect>
<path d="M204.8 398.6C204.8 398.867 204.6 399.2 204.2 399.6C203.933 399.867 203.533 400 203 400H126.2C125.533 400 125.067 399.867 124.8 399.6C124.533 399.2 124.4 398.867 124.4 398.6C124.4 397.933 125.133 397.333 126.6 396.8L134.6 394.4C141.933 392.133 148.133 388.4 153.2 383.2C158.267 377.867 160.8 370.467 160.8 361V166.8C160.8 165.067 160.733 163.8 160.6 163C160.467 162.067 159.733 160.667 158.4 158.8L139.6 126.2C139.067 125 138.4 123.933 137.6 123C136.933 121.933 136.6 121.2 136.6 120.8C136.6 120.533 136.733 120.333 137 120.2C137.267 120.067 137.733 120 138.4 120H215.6C216.4 120 217.067 120.267 217.6 120.8C218.267 121.333 218.933 122.267 219.6 123.6L350.8 359.2L347.4 366.8V159C347.4 149.533 344.867 142.133 339.8 136.8C334.733 131.333 328.467 127.6 321 125.6L310 123.2C308.533 122.667 307.8 122.067 307.8 121.4C307.8 121 307.933 120.667 308.2 120.4C308.467 120.133 308.933 120 309.6 120H386.4C387.067 120 387.533 120.133 387.8 120.4C388.067 120.667 388.2 121 388.2 121.4C388.2 122.067 387.467 122.667 386 123.2L378 125.6C370.667 127.6 364.467 131.333 359.4 136.8C354.333 142.133 351.8 149.533 351.8 159V357.2C351.8 358.8 352.067 360.267 352.6 361.6C353.133 362.933 353.667 364.133 354.2 365.2L368.8 390C370.533 392.8 371.6 394.8 372 396C372.533 397.2 372.8 398.067 372.8 398.6C372.8 399 372.6 399.333 372.2 399.6C371.933 399.867 371.333 400 370.4 400H297.8C295.933 400 295 399 295 397C295 396.2 294.8 395.133 294.4 393.8C294 392.467 293.533 391.333 293 390.4L155 149.6H165.2V361.2C165.2 370.533 167.733 377.867 172.8 383.2C178 388.533 184.2 392.267 191.4 394.4L202.6 396.8C204.067 397.333 204.8 397.933 204.8 398.6Z" fill="#453676"></path>
</svg></svg></g></g></svg></g></svg>