<svg width="23" height="23" viewBox="0 0 23 23" fill="none" xmlns="http://www.w3.org/2000/svg">
<path d="M7.496 22.328C7.496 22.5307 7.42133 22.6907 7.272 22.808C7.13333 22.9253 6.90933 22.9893 6.6 23H1.208C0.898667 22.9893 0.669333 22.9253 0.52 22.808C0.370667 22.6907 0.296 22.5307 0.296 22.328C0.296 21.9867 0.514667 21.7307 0.952 21.56L1.72 21.336C2.21067 21.1653 2.552 20.9627 2.744 20.728C2.936 20.4827 3.032 20.104 3.032 19.592V5.448C3.032 5.128 2.99467 4.872 2.92 4.68C2.84533 4.47733 2.664 4.19467 2.376 3.832L1 2.072C0.850667 1.848 0.744 1.67733 0.68 1.56C0.616 1.44267 0.584 1.32 0.584 1.192C0.584 0.999999 0.648 0.855999 0.776 0.759998C0.914667 0.653332 1.096 0.599998 1.32 0.599998H5.112C5.4 0.599998 5.64 0.653332 5.832 0.759998C6.024 0.866665 6.22667 1.064 6.44 1.352L18.76 18.088L18.056 19.8V4.008C18.056 3.50667 17.9653 3.13867 17.784 2.904C17.6133 2.65867 17.2667 2.44533 16.744 2.264L15.928 2.04C15.4907 1.848 15.272 1.592 15.272 1.272C15.272 1.05867 15.3467 0.893333 15.496 0.775999C15.6453 0.658665 15.8693 0.599998 16.168 0.599998H21.576C21.8747 0.599998 22.0987 0.658665 22.248 0.775999C22.3973 0.893333 22.472 1.05867 22.472 1.272C22.472 1.61333 22.2533 1.86933 21.816 2.04L21.048 2.264C20.5573 2.424 20.216 2.62667 20.024 2.872C19.832 3.10667 19.736 3.48533 19.736 4.008V18.568C19.736 18.888 19.7627 19.1653 19.816 19.4C19.88 19.624 19.9867 19.8373 20.136 20.04L21.144 21.4C21.336 21.6453 21.4533 21.8373 21.496 21.976C21.5387 22.104 21.56 22.232 21.56 22.36C21.56 22.552 21.4907 22.7067 21.352 22.824C21.224 22.9413 21.032 23 20.776 23H16.488C16.0187 23 15.784 22.808 15.784 22.424C15.784 22.264 15.752 22.1093 15.688 21.96C15.624 21.8107 15.448 21.5493 15.16 21.176L3.272 4.984L4.712 4.04V19.608C4.712 20.0987 4.80267 20.4613 4.984 20.696C5.16533 20.9307 5.512 21.144 6.024 21.336L6.84 21.56C7.27733 21.7307 7.496 21.9867 7.496 22.328Z" fill="#453676"/>
</svg>
